# xmcd CD database file
#
# Track frame offsets:
#	150
#	16487
#	30986
#	42515
#	65771
#	82662
#	91392
#	117233
#	132902
#	142385
#
# Disc length: 2037 seconds
#
# Revision: 1
# Processed by: cddbd v1.5.1PL2 Copyright (c) Steve Scherf et al.
# Submitted via: jetAudio 5
#
DISCID=8607f30a
DTITLE=Gavin Castleton and Cyrus Leddy - Grace Land
DYEAR=1900
DGENRE=
TTITLE0=The Good Night's Sleep
TTITLE1=The Press Ons
TTITLE2=The Best Show I Know of
TTITLE3=The Relationship I Have w/ Sunny
TTITLE4=The Nice Clothes
TTITLE5=The Wedding
TTITLE6=The Rooster and Matador
TTITLE7=The Revenge Eternal
TTITLE8=The Blues
TTITLE9=The Different Kinds of Functions
EXTD=
EXTT0=
EXTT1=
EXTT2=
EXTT3=
EXTT4=
EXTT5=
EXTT6=
EXTT7=
EXTT8=
EXTT9=
PLAYORDER=
